<svg width="16" height="16" viewBox="0 0 16 16" fill="none" xmlns="http://www.w3.org/2000/svg">
<path  d="M8.1 3.5L0.3 11.3C0.1 11.5 0 11.7 0 12V15C0 15.6 0.4 16 1 16H4C4.3 16 4.5 15.9 4.7 15.7L12.5 7.9L8.1 3.5Z" fill="white"/>
<path  d="M1.00711 12.0071L8.1 4.91421L11.0858 7.9L3.99289 14.9929C3.99033 14.9955 3.98793 14.9978 3.98567 15H1V12.0143C1.00218 12.0121 1.00455 12.0097 1.00711 12.0071Z" stroke="#444444" stroke-opacity="0.5" stroke-width="2"/>
<path  d="M15.7 3.3L12.7 0.3C12.3 -0.1 11.7 -0.1 11.3 0.3L9.5 2.1L13.9 6.5L15.7 4.7C16.1 4.3 16.1 3.7 15.7 3.3Z" fill="white"/>
<path  d="M10.9142 2.1L12 1.01421L14.9858 4L13.9 5.08579L10.9142 2.1Z" stroke="#444444" stroke-opacity="0.5" stroke-width="2"/>
</svg>
